<svg viewBox="0 0 398 312" fill="none" xmlns="http://www.w3.org/2000/svg"><g clip-path="url(#clip0_560_34)"><path d="M64.6006 237.9C67.0006 235.5 70.3006 234.1 73.8006 234.1H391.201C397.001 234.1 399.901 241.1 395.801 245.2L333.101 307.9C330.701 310.3 327.401 311.7 323.901 311.7H6.50063C0.700627 311.7 -2.19937 304.7 1.90063 300.6L64.6006 237.9Z" fill="currentColor"></path><path d="M64.6006 3.8C67.1006 1.4 70.4006 0 73.8006 0H391.201C397.001 0 399.901 7 395.801 11.1L333.101 73.8C330.701 76.2 327.401 77.6 323.901 77.6H6.50063C0.700627 77.6 -2.19937 70.6 1.90063 66.5L64.6006 3.8Z" fill="currentColor"></path><path d="M333.101 120.1C330.701 117.7 327.401 116.3 323.901 116.3H6.50063C0.700627 116.3 -2.19937 123.3 1.90063 127.4L64.6006 190.1C67.0006 192.5 70.3006 193.9 73.8006 193.9H391.201C397.001 193.9 399.901 186.9 395.801 182.8L333.101 120.1Z" fill="currentColor"></path></g><defs><clipPath id="clip0_560_34"><rect width="397.7" height="311.7" fill="white"></rect></clipPath></defs></svg>