<svg width="1835" height="1835" viewBox="0 0 1835 1835" fill="none" xmlns="http://www.w3.org/2000/svg">
<g clip-path="url(#clip0_12_223)">
<rect width="1835" height="1835" fill="white"/>
<rect width="1835" height="1835" fill="#0090FE"/>
<path d="M142.723 990.27V954.628H235.242V945.455H165.787V922.917H142.723V887.537H165.787V864.998H268.79V900.641H176.009V909.551H245.464V932.09H268.79V967.994H245.464V990.27H142.723Z" fill="white"/>
<path d="M300.645 990.27V820.184H333.931V887.537H346.773V864.998H403.386V887.537H426.712V990.27H393.164V900.641H356.995V922.917H333.931V990.27H300.645Z" fill="white"/>
<path d="M458.567 990.27V864.998H491.853V990.27H458.567ZM458.567 856.088V820.184H491.853V856.088H458.567Z" fill="white"/>
<path d="M523.834 990.27V820.184H557.12V990.27H523.834Z" fill="white"/>
<path d="M589.102 990.27V820.184H622.388V990.27H589.102Z" fill="white"/>
<path d="M654.37 990.27V864.998H687.656V990.27H654.37ZM654.37 856.088V820.184H687.656V856.088H654.37Z" fill="white"/>
<path d="M714.518 990.27V864.998H817.259V887.537H840.586V990.27H807.037V900.641H747.804V990.27H714.518Z" fill="white"/>
<path d="M890.386 1035.09V1012.81H867.321V977.167H900.607V999.443H960.103V967.994H890.386V945.455H867.321V887.537H890.386V864.998H970.324V887.537H993.389V1012.81H970.324V1035.09H890.386ZM900.607 932.09H960.103V900.641H900.607V932.09Z" fill="white"/>
<path d="M1025.24 987.387V951.483H1058.53V987.387H1025.24Z" fill="white"/>
<path d="M1090.51 990.27V842.722H1113.58V820.184H1193.25V842.722H1216.58V878.364H1183.03V856.088H1123.8V887.537H1170.19V922.917H1123.8V990.27H1090.51Z" fill="white"/>
<path d="M1258.44 990.27V967.994H1235.38V864.998H1268.67V954.628H1327.9V864.998H1361.45V967.994H1338.12V990.27H1258.44Z" fill="white"/>
<path d="M1393.3 990.27V864.998H1496.04V887.537H1519.37V990.27H1485.82V900.641H1426.59V990.27H1393.3Z" fill="white"/>
<path d="M1656.06 630.166H1671.48V651.748H1671.48V756.579H1671.48L1671.48 778.162V778.163H1656.06V796.663H1566.65V855.244H1548.15V833.661H1529.65V815.163H1523.48V815.161H1508.07V796.663H1471.07V778.163H1452.57V756.579H1430.99V651.748H1452.57V630.166H1471.07V630.167H1652.98V630.166H1471.07V611.666H1656.06V630.166ZM1553.81 743.374V760.333H1570.77V743.374H1553.81ZM1693.06 756.579H1671.48V651.748H1693.06V756.579ZM1538.16 661.191V743.373H1586.42V661.191H1570.77V678.149H1553.81V661.191H1538.16ZM1521.2 661.191V678.149H1504.24V710.762H1521.2V726.416H1538.16V661.191H1521.2ZM1586.43 661.191V726.416H1604.69V710.762H1620.34V678.149H1604.69V661.191H1586.43Z" fill="white"/>
</g>
<defs>
<clipPath id="clip0_12_223">
<rect width="1835" height="1835" fill="white"/>
</clipPath>
</defs>
</svg>
