<svg width="1835" height="1835" viewBox="0 0 1835 1835" fill="none" xmlns="http://www.w3.org/2000/svg">
<g clip-path="url(#clip0_12_180)">
<rect width="1835" height="1835" fill="white"/>
<rect width="1835" height="1835" fill="#EB5146"/>
<path d="M142.723 990.271V954.629H235.242V945.456H165.787V922.918H142.723V887.538H165.787V864.999H268.79V900.642H176.009V909.552H245.464V932.091H268.79V967.995H245.464V990.271H142.723Z" fill="white"/>
<path d="M300.645 990.271V820.185H333.931V887.538H346.773V864.999H403.386V887.538H426.712V990.271H393.164V900.642H356.995V922.918H333.931V990.271H300.645Z" fill="white"/>
<path d="M458.567 990.271V864.999H491.853V990.271H458.567ZM458.567 856.089V820.185H491.853V856.089H458.567Z" fill="white"/>
<path d="M523.834 990.271V820.185H557.12V990.271H523.834Z" fill="white"/>
<path d="M589.102 990.271V820.185H622.388V990.271H589.102Z" fill="white"/>
<path d="M654.37 990.271V864.999H687.656V990.271H654.37ZM654.37 856.089V820.185H687.656V856.089H654.37Z" fill="white"/>
<path d="M714.518 990.271V864.999H817.259V887.538H840.586V990.271H807.037V900.642H747.804V990.271H714.518Z" fill="white"/>
<path d="M890.386 1035.09V1012.81H867.321V977.167H900.607V999.444H960.103V967.995H890.386V945.456H867.321V887.538H890.386V864.999H970.324V887.538H993.389V1012.81H970.324V1035.09H890.386ZM900.607 932.091H960.103V900.642H900.607V932.091Z" fill="white"/>
<path d="M1025.24 987.388V951.484H1058.53V987.388H1025.24Z" fill="white"/>
<path d="M1090.51 990.271V842.723H1113.58V820.185H1193.25V842.723H1216.58V878.365H1183.03V856.089H1123.8V887.538H1170.19V922.918H1123.8V990.271H1090.51Z" fill="white"/>
<path d="M1258.44 990.271V967.995H1235.38V864.999H1268.67V954.629H1327.9V864.999H1361.45V967.995H1338.12V990.271H1258.44Z" fill="white"/>
<path d="M1393.3 990.271V864.999H1496.04V887.538H1519.37V990.271H1485.82V900.642H1426.59V990.271H1393.3Z" fill="white"/>
<path d="M1656.06 630.167H1671.48V651.749H1671.48V756.58H1671.48L1671.48 778.163V778.164H1656.06V796.664H1566.65V855.245H1548.15V833.662H1529.65V815.164H1523.48V815.162H1508.07V796.664H1471.07V778.164H1452.57V756.58H1430.99V651.749H1452.57V630.167H1471.07V630.168H1652.98V630.167H1471.07V611.667H1656.06V630.167ZM1553.81 743.375V760.334H1570.77V743.375H1553.81ZM1693.06 756.58H1671.48V651.749H1693.06V756.58ZM1538.16 661.192V743.374H1586.42V661.192H1570.77V678.15H1553.81V661.192H1538.16ZM1521.2 661.192V678.15H1504.24V710.763H1521.2V726.417H1538.16V661.192H1521.2ZM1586.43 661.192V726.417H1604.69V710.763H1620.34V678.15H1604.69V661.192H1586.43Z" fill="white"/>
</g>
<defs>
<clipPath id="clip0_12_180">
<rect width="1835" height="1835" fill="white"/>
</clipPath>
</defs>
</svg>
