<svg width="3782" height="1033" viewBox="0 0 3782 1033" fill="none" xmlns="http://www.w3.org/2000/svg">
<path d="M2018.73 672.921H2074.99V978.491H2018.73V1032.83H1823.74V978.491H1767.48V891.551H1848.67V945.889H1993.8V869.177H1823.74V814.199H1767.48V672.921H1823.74V617.944H2018.73V672.921ZM307.511 704.885H81.1934V726.62H250.611V781.597H307.511V869.177H250.611V923.515H0V836.574H225.679V814.199H56.2598V759.223H0V672.921H56.2598V617.944H307.511V704.885ZM466.405 672.921H497.731V617.944H635.824V672.921H692.723V923.515H610.891V704.885H522.665V759.223H466.405V923.515H385.212V508.629H466.405V672.921ZM851.617 923.515H770.425V617.944H851.617V923.515ZM1010.82 923.515H929.629V508.629H1010.82V923.515ZM1170.03 923.515H1088.83V508.629H1170.03V923.515ZM1329.23 923.515H1248.04V617.944H1329.23V923.515ZM1645.37 672.921H1702.27V923.515H1620.43V704.885H1475.95V923.515H1394.76V617.944H1645.37V672.921ZM2562.51 563.606H2619.41V650.547H2537.58V596.209H2393.09V672.921H2506.25V759.223H2393.09V923.515H2311.9V563.606H2368.16V508.629H2562.51V563.606ZM2746.46 836.574H2890.95V617.944H2972.78V869.177H2915.88V923.515H2721.53V869.177H2665.27V617.944H2746.46V836.574ZM3301.09 672.921H3357.99V923.515H3276.16V704.885H3131.67V923.515H3050.48V617.944H3301.09V672.921ZM2233.89 916.482H2152.69V828.902H2233.89V916.482ZM1848.67 781.597H1993.8V704.885H1848.67V781.597ZM851.617 596.209H770.425V508.629H851.617V596.209ZM1329.23 596.209H1248.04V508.629H1329.23V596.209ZM3691.43 45.125H3729.04V97.7715H3729.04V353.481H3729.04V406.127H3729.04V406.128H3691.43V451.252H3691.43V451.253H3473.33V594.149H3428.2V541.503H3383.08V496.378H3428.2V496.377H3383.08V496.378H3330.43V451.253H3240.18V406.128H3195.05V353.481H3142.41V97.7715H3195.05V45.125H3240.18V0H3691.43V45.125ZM3403.83 321.272H3442.02V362.639H3483.38V321.272H3521.57V279.909H3403.83V321.272ZM3781.68 353.481H3729.04V97.7715H3781.68V353.481ZM3403.83 279.909L3566.11 279.906V241.724H3604.3V162.174H3566.11V120.808H3483.38V162.174H3442.02V120.808H3403.83L3403.83 279.909ZM3362.47 162.174H3321.1V241.724H3362.47V279.906H3403.83V120.808H3362.47V162.174Z" fill="white"/>
</svg>
