<svg width="1835" height="1706" viewBox="0 0 1835 1706" fill="none" xmlns="http://www.w3.org/2000/svg">
<path d="M1575.94 129.529H1683.88L1683.88 129.53V280.647H1835V1014.65H1683.89V1165.77H1575.95V1295.3H949.884V1705.47H820.354V1554.35H690.824V1424.82H539.707V1295.3H280.65V1295.29H280.647V1165.77H151.12L151.118 1165.77V1014.65H0V280.647H151.119L151.118 129.529H280.647V0H1575.94V129.529ZM860.014 803.46V1040.94H978.752V922.198H1088.35V803.46H860.014ZM750.407 803.46V922.198H860.013V803.46H750.407ZM631.664 346.772V465.511H512.932V693.853H631.664V803.458H750.402V346.772H631.664ZM750.407 346.772V803.458H860.013V346.772H750.407ZM978.746 346.772V465.511H860.014V803.458H1088.35V346.772H978.746ZM1088.35 346.772V803.458H1216.23V693.853H1325.83V465.511H1216.23V346.772H1088.35Z" fill="#EB5146"/>
</svg>
