<svg width="1493" height="817" viewBox="0 0 1493 817" fill="none" xmlns="http://www.w3.org/2000/svg">
<g clip-path="url(#clip0_37_41)">
<path d="M1251.35 594.659H1263.17V611.203H1263.17V691.56H1263.17V708.104H1263.17V708.104H1251.35V722.285H1182.81V767.189H1168.63V750.646H1154.45V736.466H1149.73V736.465H1137.91V722.285H1109.55V708.104H1095.37V691.56H1078.82V611.203H1095.37V594.66H1095.37V594.659H1109.55V594.66H1248.99V594.659H1109.55V580.479H1251.35V594.659ZM1172.97 681.438V694.438H1185.97V681.438H1172.97ZM1279.71 691.56H1263.17V611.203H1279.71V691.56ZM1160.98 631.441V681.437H1197.97V631.441H1160.98ZM1134.98 631.441V656.439H1147.97V668.438H1160.97V631.441H1134.98ZM1197.97 631.441V668.438H1211.97V656.439H1223.97V631.441H1197.97ZM1147.97 618.441V631.44H1160.97V618.441H1147.97ZM1160.98 618.441V631.44H1172.98V618.441H1160.98ZM1185.97 618.441V631.44H1197.97V618.441H1185.97ZM1197.97 618.441V631.44H1211.97V618.441H1197.97Z" fill="#9A00FE"/>
<path d="M1240.25 583.56H1252.07V600.104H1252.07V680.461H1252.07V697.005H1252.07V697.006H1240.25V711.185H1240.25V711.186H1171.71V756.091H1157.53V739.547H1143.35V725.367H1138.62V725.366H1126.81V711.186H1098.45V697.006H1084.27V680.461H1067.72V600.104H1084.27V583.561H1084.27V583.56H1098.45V583.561H1237.89V583.56H1098.45V569.38H1240.25V583.56ZM1161.88 670.339V683.338H1174.88V670.339H1161.88ZM1268.62 680.461H1252.07V600.104H1268.62V680.461ZM1149.88 607.343V670.338H1186.87V607.343H1174.87V620.342H1161.88V607.343H1149.88ZM1136.88 607.343V620.342H1123.88V645.341H1136.88V657.34H1149.87V607.343H1136.88ZM1186.87 607.343V657.34H1200.87V645.341H1212.87V620.342H1200.87V607.343H1186.87Z" fill="#B784ED"/>
<path d="M338.177 484.055H360.517V515.331H360.516V667.247H360.517V698.524H360.516V698.525H338.179V725.333H208.602V810.227H181.793V778.95H154.984V752.143H146.049V752.142H123.707V725.333H70.0898V698.525H43.2803V667.247H12.0049V515.331H43.2803V484.057H43.2812V484.055H70.0898V484.057H333.708V484.055H70.0898V457.246H338.177V484.055ZM190 648.112V672.687H214.575V648.112H190ZM391.794 667.247H360.517V515.331H391.794V667.247ZM167.314 600.852V648.11H189.999V600.852H167.314ZM190 600.852V648.11H237.254V600.852H190ZM142.735 600.852V623.536H167.311V600.852H142.735ZM237.263 600.852V623.536H263.729V600.852H237.263ZM142.735 529.016V553.591H118.161V600.851H167.311V529.016H142.735ZM167.314 529.016V600.851H189.999V529.016H167.314ZM214.569 529.016V553.591H190V600.851H237.254V529.016H214.569ZM237.263 529.016V600.851H286.406V553.591H263.729V529.016H237.263Z" fill="#9A00FE"/>
<path d="M174.7 121.474H186.286V137.693H186.285V216.476H186.286V232.696H186.285L174.701 232.697V246.599H107.503V290.625H93.6006V274.405H79.6973V260.503L75.0635 260.502H63.4775V246.599L35.6729 246.599H35.6719V232.697H21.7676V216.476H5.54883V137.693H21.7676V121.474H21.7686V121.474H35.6719V121.474H172.383V121.474H35.6719V107.57H174.7V121.474ZM97.8545 206.552V219.296H110.6V206.552H97.8545ZM202.506 216.476H186.286V137.693H202.506V216.476ZM73.3447 157.534V193.807H86.0898V206.551H97.8535V157.534H73.3447ZM97.8545 157.534V206.551H122.36V157.534H97.8545ZM122.366 157.534V193.807H136.091V182.043H147.852V157.534H122.366ZM60.5996 157.534V182.043H73.3438V157.534H60.5996ZM73.3447 144.789V157.533H97.8535V144.789H73.3447ZM110.597 144.789V157.533H122.36V144.789H110.597ZM122.366 144.789V157.533H136.091V144.789H122.366Z" fill="#E7D5F9"/>
<path d="M1437.92 219.157H1460.54V250.824H1492.21V404.637H1460.54V436.305H1437.93V463.448H1306.73V549.401H1279.59V517.733H1252.44V490.592H1243.4V490.59H1220.78V463.448H1166.49V463.447H1166.49V436.305H1139.35V404.637H1107.68V250.824H1139.35V219.157H1166.49V219.159H1433.4V219.157H1166.49V192.014H1437.92V219.157ZM1287.9 385.261V410.143H1312.78V385.261H1287.9ZM1264.93 264.679V385.259H1287.89V264.679H1264.93ZM1312.77 264.679V289.561H1287.9V385.259H1335.74V264.679H1312.77ZM1240.04 264.679V289.561H1215.16V337.411H1240.04V360.379H1264.92V264.679H1240.04ZM1335.75 264.679V360.379H1362.54V337.411H1385.51V289.561H1362.54V264.679H1335.75Z" fill="#E7D5F9"/>
<path d="M823.605 81.8645H862.228V135.936H916.299V398.57H862.228V452.643H823.605V498.989H823.604V498.99H599.594V645.754H553.247V591.682H506.9V545.338H491.449V545.335H452.828V498.99H360.133V452.643H313.787V398.57H259.716V135.936H313.787V81.8645H360.134V81.8684H815.881V81.8645H360.134V35.5178H823.605V81.8645ZM567.436 365.488V407.973H609.922V365.488H567.436ZM528.22 202.08V365.485H649.135V202.08H528.22ZM443.243 202.08V283.783H485.725V323.001H528.211V202.08H443.243ZM649.141 202.08V323.001H694.895V283.783H734.111V202.08H649.141ZM485.725 159.594V202.079H528.211V159.594H485.725ZM528.22 159.594V202.079H567.438V159.594H528.22ZM609.917 159.594V202.079H649.135V159.594H609.917ZM649.141 159.594V202.079H694.895V159.594H649.141Z" fill="white"/>
<path d="M326.172 472.05H348.513V503.326H348.512V655.242H348.513V686.518H348.512V686.519H326.174V713.328H196.597V798.222H169.788V766.945H142.979V740.138H134.046V740.137H111.703V713.328H58.0859V686.519H31.2764V655.242H0V503.326H31.2764V472.052H31.2773V472.05H58.0859V472.052H321.704V472.05H58.0859V445.241H326.172V472.05ZM177.995 636.105V660.681H202.57V636.105H177.995ZM379.79 655.242H348.513V503.326H379.79V655.242ZM155.309 588.846V636.103H177.993V588.846H155.309ZM177.995 588.846V636.103H225.247V588.846H177.995ZM130.73 588.846V611.53H155.306V588.846H130.73ZM225.257 588.846V611.53H251.723V588.846H225.257ZM106.154 541.585V588.845H130.729V541.585H106.154ZM130.73 517.01V588.845H155.306V517.01H130.73ZM155.309 517.01V588.845H177.993V517.01H155.309ZM202.562 517.01V541.585H177.995V588.845H225.247V517.01H202.562ZM225.257 517.01V588.845H274.4V541.585H251.723V517.01H225.257Z" fill="#B784ED"/>
<path d="M811.396 96.2932H850.019V150.365H850.017V412.998H850.019V467.07H850.017V467.072H811.396V513.417H811.394V513.419H587.385V660.183H541.038V606.111H494.69V559.767H479.239V559.764H440.619V513.419H347.923V467.072H301.576V412.998H247.507V150.365H301.576V96.2971H301.578V96.2932H347.925V96.2971H803.671V96.2932H347.925V49.9465H811.396V96.2932ZM555.228 379.915V422.402H597.713V379.915H555.228ZM904.09 412.998H850.019V150.365H904.09V412.998ZM516.013 216.509V379.913H636.926V216.509H516.013ZM431.035 216.509V298.212H473.517V337.43H516.003V216.509H431.035ZM636.933 216.509V337.43H682.687V298.212H721.902V216.509H636.933ZM473.517 174.023V216.508H516.003V174.023H473.517ZM516.013 174.023V216.508H555.23V174.023H516.013ZM597.708 174.023V216.508H636.926V174.023H597.708ZM636.933 174.023V216.508H682.687V174.023H636.933Z" fill="#9A00FE"/>
<path d="M1192.44 30.6697H1213.37V59.9763H1213.37V202.325H1213.37L1213.37 231.632V231.634H1192.44V256.753H1192.44V256.755H1071.02V336.3H1045.9V306.993H1020.78V281.875H1012.41V281.873H991.477V256.755H941.236V231.634H916.115V202.325H886.81V59.9763H916.115V30.6726H916.116V30.6697H941.236V30.6726H1188.25V30.6697H941.236V5.54956H1192.44V30.6697ZM1053.59 184.394V207.422H1076.62V184.394H1053.59ZM1242.68 202.325H1213.37V59.9763H1242.68V202.325ZM1032.34 72.7996V184.393H1097.88V72.7996H1076.62V95.8269H1053.59V72.7996H1032.34ZM1009.31 72.7996V95.8269H986.281V140.111H1009.31V161.367H1032.33V72.7996H1009.31ZM1097.88 72.7996V161.367H1122.68V72.7996H1097.88ZM1122.68 95.8269V140.111H1143.93V95.8269H1122.68Z" fill="#9A00FE"/>
<path d="M1175.79 25.1201H1196.72V54.4268H1196.72V196.775H1196.72V226.082H1196.72V226.083H1175.79V251.202H1175.79V251.204H1054.38V330.75H1029.26V301.443H1004.14V276.324H995.761V276.323H974.829V251.204H924.587V226.083H899.467V196.775H870.161V54.4268H899.467V25.1221H899.469V25.1201H924.589V25.1221H1171.6V25.1201H924.589V0H1175.79V25.1201ZM1036.95 178.845V201.872H1059.98V178.845H1036.95ZM1226.03 196.775H1196.72V54.4268H1226.03V196.775ZM1015.69 67.25V178.844H1081.23V67.25H1059.97V90.2773H1036.95V67.25H1015.69ZM992.659 67.25V90.2773H969.635V134.561H992.659V155.817H1015.69V67.25H992.659ZM1081.23 67.25V155.817H1106.03V134.561H1127.29V90.2773H1106.03V67.25H1081.23Z" fill="#B784ED"/>
<path d="M1088.77 432.235H1115.07V469.056H1151.89V647.899H1115.07V684.721H1088.77V716.279H1088.77V716.281H936.228V816.221H904.667V779.401H873.106V747.843H862.586V747.84H836.286V716.281H773.164V684.721H741.604V647.899H704.784V469.056H741.604V432.235H773.165V432.238H1083.51V432.235H773.165V400.675H1088.77V432.235ZM914.332 625.371V654.303H943.264V625.371H914.332ZM887.628 514.098V625.369H969.965V514.098H887.628ZM829.761 514.098V569.734H858.69V596.44H887.622V514.098H829.761ZM969.969 514.098V596.44H1001.12V569.734H1027.83V514.098H969.969ZM858.69 485.166V514.097H887.622V485.166H858.69ZM887.628 485.166V514.097H914.334V485.166H887.628ZM943.259 485.166V514.097H969.965V485.166H943.259ZM969.969 485.166V514.097H1001.12V485.166H969.969Z" fill="#3E2B57"/>
<path d="M1426.82 216.937H1449.44V248.604H1481.11V402.417H1449.44V434.085H1426.82V461.228H1295.63V547.182H1268.49V515.514H1241.34V488.372H1232.3V488.371H1209.68V461.228H1155.39V461.227H1155.39V434.085H1128.25V402.417H1096.58V248.604H1128.25V216.937H1155.39V216.939H1422.3V216.937H1155.39V189.794H1426.82V216.937ZM1276.8 383.041V407.923H1301.68V383.041H1276.8ZM1253.83 262.459V383.039H1276.79V262.459H1253.83ZM1301.67 262.459V287.341H1276.8V383.039H1324.64V262.459H1301.67ZM1228.94 262.459V287.341H1204.06V335.191H1228.94V358.159H1253.82V262.459H1228.94ZM1324.65 262.459V358.159H1351.44V335.191H1374.41V287.341H1351.44V262.459H1324.65Z" fill="#3E2B57"/>
<path d="M169.152 112.594H180.738V128.814H180.737V207.597H180.738V223.817H180.737L169.153 223.818V237.72H101.955V281.746H88.0518V265.526H74.1494V251.624L69.5156 251.623H57.9287V237.72H30.123V223.818H16.2197V207.597H0V128.814H16.2197V112.595H16.2207V112.594H30.123V112.595H166.835V112.594H30.123V98.691H169.152V112.594ZM92.3066 197.672V210.417H105.051V197.672H92.3066ZM196.958 207.597H180.738V128.814H196.958V207.597ZM67.7969 135.91V184.927H80.541V197.672H92.3057V135.91H67.7969ZM105.048 135.91V148.655H92.3066V197.672H116.812V135.91H105.048ZM116.817 135.91V184.927H130.542V173.164H142.304V148.655H130.542V135.91H116.817ZM55.0508 148.655V173.164H67.7959V148.655H55.0508Z" fill="#3E2B57"/>
<path d="M1071.01 412.923H1097.31V412.926H1097.32V449.743H1134.13V628.586H1097.32V665.408H1071.01V696.969H918.472V796.908H886.911V760.088H855.351V728.53H844.83V728.527H818.53V696.969H755.408V665.408H723.85V665.406H723.849V628.586H723.85V449.743H723.849V412.923H755.409V412.926H1065.75V412.923H755.409V381.362H1071.01V412.923ZM896.574 606.058V634.99H925.506V606.058H896.574ZM723.849 628.586H687.028V449.743H723.849V628.586ZM869.87 465.853V606.057H952.208V465.853H925.503V494.785H896.575V465.853H869.87ZM840.933 465.853V494.785H812.003V550.422H840.933V577.127H869.863V465.853H840.933ZM952.212 465.853V577.127H983.369V550.422H1010.07V494.785H983.369V465.853H952.212Z" fill="#E7D5F9"/>
<path d="M291.934 295.572H305.164V314.093H305.161V404.054H305.164V422.576H305.161L291.934 422.577V438.452H291.933V438.453H215.203V488.723H199.327V470.203H183.452V454.328L178.158 454.327H164.931V438.453H133.179V422.577H117.302V404.054H98.7822V314.093H117.302V295.574H117.304V295.572H133.18V295.574H289.288V295.572H133.18V279.697H291.934V295.572ZM204.186 392.722V407.275H218.738V392.722H204.186ZM323.685 404.054H305.164V314.093H323.685V404.054ZM190.754 322.197V392.721H232.171V322.197H218.737V336.75H204.188V322.197H190.754ZM176.197 322.197V336.75H161.646V364.736H176.197V378.169H190.75V322.197H176.197ZM232.172 322.197V378.169H247.845V364.736H261.278V336.75H247.845V322.197H232.172Z" fill="#3E2B57"/>
<path d="M277.503 280.032H290.732V298.554H309.254V388.515H290.732V407.037H277.503V422.911H277.502V422.913H200.771V473.184H184.896V454.662H169.021V438.789H163.728V438.787H150.499V422.913H118.748V407.037H102.872V388.515H84.3516V298.554H102.872V280.032H118.748V280.034H274.856V280.032H118.748V264.157H277.503V280.032ZM189.757 377.184V391.736H204.31V377.184H189.757ZM176.324 306.658V377.183H217.74V306.658H204.308V321.211H189.757V306.658H176.324ZM161.767 306.658V321.211H147.215V349.197H161.767V362.631H176.32V306.658H161.767ZM217.742 306.658V362.631H233.414V306.658H217.742ZM233.416 321.211V349.197H246.85V321.211H233.416Z" fill="white"/>
</g>
<defs>
<clipPath id="clip0_37_41">
<rect width="1493" height="817" fill="white"/>
</clipPath>
</defs>
</svg>
